PathFileType	4	(X/Y/Z)	RBDS028\RBDS028runT45.trc
DataRate	CameraRate	NumFrames	NumMarkers	Units	OrigDataRate	OrigDataStartFrame	OrigNumFrames
150.000000	150.000000	4	33	mm	150.000000	1687	4500
Frame#	Time	L.ASIS			L.Heel.Bottom			L.Heel.Lateral			L.Heel.Top			L.Iliac.Crest			L.MT1			L.MT5			L.PSIS			L.Shank.Bottom.Lateral			L.Shank.Bottom.Medial			L.Shank.Top.Lateral			L.Shank.Top.Medial			L.Thigh.Bottom.Lateral			L.Thigh.Bottom.Medial			L.Thigh.Top.Lateral			L.Thigh.Top.Medial			R.ASIS			R.ASY			R.Heel.Bottom			R.Heel.Lateral			R.Heel.Top			R.Iliac.Crest			R.MT1			R.MT5			R.PSIS			R.Shank.Bottom.Lateral			R.Shank.Bottom.Medial			R.Shank.Top.Lateral			R.Shank.Top.Medial			R.Thigh.Bottom.Lateral			R.Thigh.Bottom.Medial			R.Thigh.Top.Lateral			R.Thigh.Top.Medial			
		X1	Y1	Z1	X2	Y2	Z2	X3	Y3	Z3	X4	Y4	Z4	X5	Y5	Z5	X6	Y6	Z6	X7	Y7	Z7	X8	Y8	Z8	X9	Y9	Z9	X10	Y10	Z10	X11	Y11	Z11	X12	Y12	Z12	X13	Y13	Z13	X14	Y14	Z14	X15	Y15	Z15	X16	Y16	Z16	X17	Y17	Z17	X18	Y18	Z18	X19	Y19	Z19	X20	Y20	Z20	X21	Y21	Z21	X22	Y22	Z22	X23	Y23	Z23	X24	Y24	Z24	X25	Y25	Z25	X26	Y26	Z26	X27	Y27	Z27	X28	Y28	Z28	X29	Y29	Z29	X30	Y30	Z30	X31	Y31	Z31	X32	Y32	Z32	X33	Y33	Z33	

1688	11.24666666666667	1907.840495013967	844.4341660121169	879.8109533300478	1554.258811557889	56.13855600787802	987.4290328399171	1586.519970155877	68.51370091564787	943.9006876745499	1572.824056164588	97.88230592324713	988.6245096604949	1821.605841648095	873.3708669020632	864.3041522135497	1771.5341732354	33.47532632995429	1026.134300401847	1730.900540319438	33.87977590561589	916.7835088386568	1761.675837299021	850.1469932558227	973.9344920964713	1679.851252298893	160.0346922570753	924.1009800460673	1646.468351127651	185.9813119602027	952.9732042081953	1709.682682684757	227.9878125847486	892.4843063183732	1683.355517627346	257.9277457152758	928.3620251916517	1862.061064548999	506.6695207737342	839.5276289697174	1797.606780338789	503.7232664832451	872.4206848915225	1850.509753283226	615.7466885167626	828.4283068900972	1790.590533058254	612.3741109944597	863.4686486212387	1929.502415753503	833.7059252895687	1121.85338397221	1829.578423801559	219.4551874536546	1062.848432583635	1708.704849941749	363.5862034990968	1036.775710711171	1735.980356345454	345.6658322609011	1082.023787239926	1753.837760103844	371.2002940070904	1038.192776445529	1867.135355899982	884.7592149446275	1147.423258787038	1804.721319702166	165.6847848918255	1016.473769660436	1777.145512742736	200.7533510275832	1121.841498483613	1772.545002012002	843.3948765670052	1061.289185813893	1854.73975045281	356.0429285054502	1108.340499679255	1842.206841859278	393.9150937849803	1070.0460195153	1917.678415871525	402.264777466985	1130.552168111804	1905.295235187816	437.6396604772625	1091.909526759659	2066.850375163991	549.9176221089942	1175.982117544817	2024.921000861038	509.7224919186703	1134.293580847938	1988.393627577797	628.25951201664	1178.507128658818	1945.993287404879	586.6212338396253	1144.593862942442	
1689	11.25333333333333	1909.346926841449	844.842711995905	879.3475580642258	1526.108942579758	64.4135962717023	988.041122716619	1558.664103037203	74.8965961368051	944.202526372213	1546.229561684224	105.4319564085871	988.6420593897702	1824.60354954474	876.9071690856731	863.1954418110159	1741.548995148624	32.97538884952512	1026.083088933935	1700.844625805049	34.17818188802456	916.9908826603299	1762.702895885658	852.6568615094715	971.7117934503073	1653.270514589033	166.5138333562907	924.4063511959987	1621.016361826379	192.579942907116	954.263927242743	1683.925528511598	234.2487770822237	893.3888657167556	1658.765712540024	264.1321753051036	930.1350662855685	1846.011124833171	508.9472072817468	840.5901778810032	1781.880522736915	509.690229043658	874.0775202113499	1840.277690264973	618.3433906386398	828.7336180498371	1780.788068273041	618.4932902041646	864.5712141572379	1929.163193447524	837.7516345726259	1121.541939674755	1859.847811367652	207.4062966246675	1065.008442223549	1727.641274239014	341.4741573618436	1035.863107667855	1755.646404660113	325.9580962549801	1081.435001548082	1772.071117289156	352.8112235703332	1037.662836298104	1865.719188566753	888.3758375523696	1146.580803117993	1840.071568952143	151.4878158235841	1019.140892121239	1807.948379438598	184.790710899167	1123.474686201594	1772.715090762533	845.8722492333206	1059.201961618317	1873.925920739049	346.8872421581514	1107.916523717752	1858.640639226041	382.990113688547	1068.804228798145	1932.978507929445	398.4363310987	1129.016363684254	1917.998748819005	432.0684459900455	1089.648235330994	2074.094429217746	559.6672241011489	1173.624073823816	2033.749276555786	518.2014991433526	1131.362409168161	1992.905063364115	635.153151670239	1176.72052139188	1952.119494351727	592.2246558814134	1142.310399639605	
1690	11.26	1910.825781542211	845.2150162644364	878.6138820269132	1499.0279118256	74.20240443006725	988.5093429743509	1531.777405509851	82.46915517617695	944.3794753956511	1520.953344137056	114.2226394864298	988.4949821619631	1828.722192900751	880.6701187515372	861.9598123753243	1711.908271402088	32.40498438332965	1026.020917176175	1671.095963198165	34.60169953123069	917.1035755341372	1763.970767204688	855.331032271104	969.6287713474287	1627.667747226955	173.8843559550459	924.5238210231264	1596.563237753222	199.8910837910475	955.49911890104	1659.030310075688	241.5793285763665	894.2841161553064	1634.977060711498	271.2187728469996	931.9629852482303	1829.958598278188	512.186216346096	841.7444495264443	1766.691858846826	516.6172218193776	876.3897811985842	1829.976070612548	621.5830677572744	829.1401761309401	1771.395632367442	625.2419253892418	866.1886413609001	1929.398196741641	842.1526089267356	1120.626626744721	1890.933578460056	195.8017899158129	1067.239815074113	1748.228840344166	318.637121287423	1034.588651992365	1776.63914543035	305.7489245402667	1080.624427101744	1791.605928377785	333.6907600150539	1036.870180755995	1865.523575003339	892.6459311508343	1145.591022867728	1876.654424474352	138.0308599155206	1021.921246131529	1839.872551009249	169.4080444899704	1125.135909467153	1773.330431282488	848.778364990327	1057.405967621924	1893.445876708926	337.4614140489676	1107.353385626929	1875.618534312545	371.419120930554	1067.265034001408	1948.027396485054	394.1989327558488	1127.292843928524	1930.715073178726	425.6884846021193	1087.035561717475	2080.204312152719	568.9285793486223	1170.98193415312	2041.138658987202	526.3974382010152	1128.313181166146	1996.815904167589	641.9032973811408	1174.823015281705	1957.413721467561	597.9498650233572	1139.983007506154	
1691	11.26666666666667	1912.218902399208	845.5764128507227	877.6477745244335	1473.322902182887	85.53706785393724	988.7503632435361	1506.105148369006	91.26041980970068	944.3503612758169	1497.264134655975	124.2411405258057	988.0672514164345	1833.832614585965	884.4982457609293	860.6611780490947	1682.711401049501	31.90059896233521	1025.898556454754	1641.743380743928	35.25180413166969	917.0917993396126	1765.416362668234	858.1791970386982	967.7599218174569	1603.333896523329	182.0492268927563	924.3346741097102	1573.375151452392	207.8355739975626	956.515818932327	1635.359224699903	249.8538063059523	895.0597759287433	1612.318949164049	279.0880506726097	933.6893180239942	1814.271062394446	516.3191467416189	842.9131568672777	1752.329735620193	524.3275388591233	879.1729142530216	1819.859600091246	625.430251204328	829.6232257282581	1762.614590416679	632.4746224339337	868.2264425998945	1930.167614724745	846.7424770203751	1119.082057459038	1922.752747069644	184.907624879077	1069.349476902453	1770.530329336574	295.377193125221	1033.272312821244	1799.100553774926	285.2828487548454	1079.823607275411	1812.484757920033	314.0944541087272	1036.049887208707	1866.457382965895	897.436142476826	1144.495655866798	1914.25444822736	125.6954074983203	1024.56112285973	1873.000043086691	154.873309513193	1126.716504597248	1774.344420614083	852.1072773461068	1055.969575849697	1913.356796593788	327.8266899616805	1106.744145203776	1893.21192858616	359.3382041043675	1065.606109795415	1962.932265106863	389.4749786041177	1125.512894360108	1943.575652460148	418.4988875679837	1084.275719319867	2085.274683868462	577.4565223586087	1168.085244857315	2047.089584892744	534.0212549676763	1125.32035595052	2000.209264147627	648.3447030047878	1172.848574436838	1961.865809301779	603.592500772507	1137.782241111003	
